<?xml version="1.0" encoding="iso-8859-1"?>
<!-- Uploaded to: SVG Repo, www.svgrepo.com, Generator: SVG Repo Mixer Tools -->
<svg fill="#000000" height="800px" width="800px" version="1.1" id="Layer_1" xmlns="http://www.w3.org/2000/svg" xmlns:xlink="http://www.w3.org/1999/xlink" 
	 viewBox="0 0 512 512" xml:space="preserve">
<g>
	<g>
		<path d="M471.224,151.732H327.529V35.749C327.529,16.037,311.492,0,291.781,0H66.326C46.614,0,30.577,16.037,30.577,35.749
			v440.502c0,19.712,16.037,35.749,35.749,35.749h225.454c19.711,0,35.748-16.037,35.748-35.749v-147.6h143.695
			c5.632,0,10.199-4.567,10.199-10.199V161.931C481.423,156.299,476.856,151.732,471.224,151.732z M50.976,35.749
			c0-8.464,6.886-15.351,15.351-15.351h225.454c8.464,0,15.35,6.887,15.35,15.351v18.307H50.976V35.749z M50.976,74.454H307.13
			v77.277h-93.863c-5.632,0-10.199,4.567-10.199,10.199v32.4l-36.913,36.913c-3.983,3.983-3.983,10.441,0,14.425l36.913,36.913
			v35.872c0,5.632,4.567,10.199,10.199,10.199h93.863v77.276H50.976V74.454z M291.781,491.602H66.326
			c-8.464,0-15.351-6.887-15.351-15.351v-49.924H307.13v49.924h0.001C307.131,484.715,300.245,491.602,291.781,491.602z
			 M461.024,308.253H223.467v-29.897c0-2.705-1.075-5.299-2.987-7.212l-32.688-32.688l32.688-32.688
			c1.912-1.913,2.987-4.507,2.987-7.212V172.13h237.558V308.253z"/>
	</g>
</g>
<g>
	<g>
		<path d="M198.646,435.56h-45.304c-12.254,0-22.224,9.97-22.224,22.224v2.36c0,12.254,9.97,22.224,22.224,22.224h45.304
			c12.255,0,22.225-9.97,22.225-22.224v-2.36C220.871,445.53,210.901,435.56,198.646,435.56z M200.472,460.144
			c0,1.007-0.82,1.826-1.827,1.826h-45.304c-1.007,0-1.826-0.819-1.826-1.826v-2.36c0-1.007,0.819-1.826,1.826-1.826h45.304
			c1.007,0,1.827,0.819,1.827,1.826V460.144z"/>
	</g>
</g>
<g>
	<g>
		<path d="M212.202,27.538h-4.59c-5.632,0-10.199,4.567-10.199,10.199s4.567,10.199,10.199,10.199h4.59
			c5.632,0,10.199-4.567,10.199-10.199S217.834,27.538,212.202,27.538z"/>
	</g>
</g>
<g>
	<g>
		<path d="M174.974,27.538h-29.068c-5.632,0-10.199,4.567-10.199,10.199s4.567,10.199,10.199,10.199h29.068
			c5.632,0,10.199-4.567,10.199-10.199S180.606,27.538,174.974,27.538z"/>
	</g>
</g>
<g>
	<g>
		<path d="M411.024,192.16H273.466c-5.632,0-10.199,4.567-10.199,10.199v75.664c0,5.632,4.567,10.199,10.199,10.199h137.558
			c5.632,0,10.199-4.567,10.199-10.199v-75.664C421.223,196.727,416.656,192.16,411.024,192.16z M380.775,212.559l-38.677,18.417
			l-39.466-18.417H380.775z M400.825,267.824H283.665v-41.606l54.163,25.276c1.367,0.638,2.839,0.957,4.313,0.957
			c1.499,0,2.998-0.33,4.385-0.991l54.299-25.856V267.824z"/>
	</g>
</g>
</svg>